<svg width="182" height="273" viewBox="0 0 182 273" fill="none" xmlns="http://www.w3.org/2000/svg">
<path d="M0 272.383C1.0108 169.107 4.75328 60.0203 6.83377 21.3979C24.3846 17.1696 57.5351 9.17904 89.7116 1.42742C157.65 -7.72947 187.939 28.2456 180.394 78.4872C174.639 144.786 115.67 156.934 58.5693 176.874C54.6694 177.815 54.629 181.946 54.629 181.946C54.629 181.946 53.4024 232.728 52.1845 257.747C52.0322 260.875 49.9604 261.374 49.9604 261.374L2.18373 272.887C2.18373 272.887 0.233654 273.357 0 272.383Z" fill="#626262"/>
<path d="M182 242.298C182 252.64 173.635 261.024 163.316 261.024C152.998 261.024 144.633 252.64 144.633 242.298C144.633 231.956 152.998 223.572 163.316 223.572C173.635 223.572 182 231.956 182 242.298Z" fill="#626262"/>
</svg>
