<svg width="250" height="96" viewBox="0 0 250 96" fill="none" xmlns="http://www.w3.org/2000/svg">
<path d="M6.57749 24.1512V42.495H1.85946V1.61939H10.3797C13.3585 1.61939 15.551 1.77761 16.9571 2.09404C18.3633 2.41047 19.5844 2.93165 20.6206 3.65759C21.9157 4.58827 22.9241 5.86331 23.6456 7.4827C24.3857 9.10208 24.7558 10.8983 24.7558 12.8714C24.7558 14.8444 24.3857 16.6406 23.6456 18.26C22.9241 19.8794 21.9157 21.1544 20.6206 22.0851C19.5844 22.8297 18.3633 23.3602 16.9571 23.6766C15.5695 23.993 13.377 24.1512 10.3797 24.1512H6.57749ZM6.57749 19.7398H9.01976C13.1642 19.7398 15.9488 19.2558 17.3734 18.2879C18.8166 17.3014 19.5382 15.5889 19.5382 13.1506C19.5382 10.5446 18.7981 8.7112 17.3179 7.65022C15.8563 6.58924 13.0902 6.05875 9.01976 6.05875H6.57749V19.7398Z" fill="#111111"/>
<path d="M40.464 10.7494L33.9976 25.7985H46.9305L40.464 10.7494ZM40.464 0L58.9476 42.495H53.7023L48.4292 29.9587H32.5544L27.2813 42.495H22.036L40.464 0Z" fill="#111111"/>
<path d="M63.1383 42.495V0L92.8619 32.667V1.61939H97.4689V44.0865L67.7453 11.7825V42.495H63.1383Z" fill="#111111"/>
<path d="M129.552 21.3871H146.314V22.7552C146.314 29.1955 144.501 34.2771 140.875 37.9998C137.248 41.7225 132.299 43.5839 126.027 43.5839C124.121 43.5839 122.299 43.3792 120.56 42.9697C118.839 42.5602 117.248 41.9645 115.786 41.1827C112.456 39.34 109.884 36.7992 108.071 33.5604C106.257 30.3031 105.351 26.6082 105.351 22.476C105.351 19.0697 105.887 15.9984 106.96 13.2622C108.052 10.5074 109.69 8.08764 111.873 6.00291C113.704 4.25322 115.832 2.93165 118.256 2.0382C120.68 1.14474 123.363 0.698013 126.304 0.698013C130.208 0.698013 133.594 1.41464 136.462 2.84789C139.33 4.26253 141.707 6.4031 143.595 9.26961L139.543 12.5363C138.081 10.0607 136.259 8.20863 134.075 6.98013C131.892 5.73301 129.357 5.10945 126.471 5.10945C121.753 5.10945 117.923 6.71023 114.981 9.91178C112.039 13.1133 110.568 17.3014 110.568 22.476C110.568 27.3528 112.058 31.3547 115.037 34.4818C118.034 37.6089 121.845 39.1725 126.471 39.1725C130.541 39.1725 133.927 37.9347 136.629 35.459C139.348 32.9648 140.856 29.726 141.152 25.7427H129.552V21.3871Z" fill="#111111"/>
<path d="M166.352 10.7494L159.886 25.7985H172.819L166.352 10.7494ZM166.352 0L184.836 42.495H179.59L174.317 29.9587H158.443L153.169 42.495H147.924L166.352 0Z" fill="#111111"/>
<path d="M189.026 42.495V1.61939H210.452V6.05875H193.855V17.7854H210.452V22.3085H193.855V37.9719H210.452V42.495H189.026Z" fill="#111111"/>
<path d="M231.516 10.7494L225.05 25.7985H237.983L231.516 10.7494ZM231.516 0L250 42.495H244.755L239.482 29.9587H223.607L218.334 42.495H213.088L231.516 0Z" fill="#111111"/>
<path d="M34.8302 63.8077C32.8874 61.6857 30.8152 60.1222 28.6135 59.117C26.4117 58.0933 23.9787 57.5814 21.3144 57.5814C19.1681 57.5814 17.0682 58.0188 15.0144 58.8937C12.9792 59.7685 11.2123 60.9877 9.71359 62.5512C8.15941 64.1706 6.99378 65.9855 6.2167 67.9957C5.43961 69.9874 5.05107 72.1931 5.05107 74.6129C5.05107 76.5115 5.28234 78.2612 5.74489 79.862C6.20745 81.4627 6.90127 82.9332 7.82638 84.2734C9.45456 86.6001 11.4528 88.3963 13.821 89.662C16.2078 90.9092 18.7796 91.5327 21.5364 91.5327C24.1267 91.5327 26.532 90.9929 28.7522 89.9133C30.9725 88.8337 32.9984 87.2237 34.8302 85.0831V91.5327C32.8134 93.0032 30.6394 94.12 28.3082 94.8832C25.9954 95.6277 23.5994 96 21.1201 96C18.9739 96 16.8831 95.6743 14.8479 95.0228C12.8127 94.3899 10.907 93.4592 9.13077 92.2307C6.17044 90.1646 3.90394 87.6238 2.33126 84.6084C0.777087 81.593 0 78.2798 0 74.6687C0 71.523 0.518058 68.6658 1.55417 66.0971C2.60879 63.5098 4.20922 61.1645 6.35546 59.0612C8.42769 57.0509 10.722 55.5525 13.2382 54.566C15.7545 53.5608 18.5021 53.0583 21.4809 53.0583C23.8307 53.0583 26.1064 53.4212 28.3082 54.1472C30.5099 54.8545 32.6839 55.962 34.8302 57.4697V63.8077Z" fill="#111111"/>
<path d="M62.944 91.421C65.1643 91.421 67.2735 91.0022 69.2718 90.1646C71.2885 89.3084 73.1017 88.0706 74.7114 86.4512C76.3025 84.8504 77.5144 83.0356 78.347 81.0067C79.1796 78.9778 79.5959 76.8279 79.5959 74.5571C79.5959 72.2676 79.1704 70.0898 78.3193 68.0237C77.4867 65.9575 76.284 64.1334 74.7114 62.5512C73.1202 60.9505 71.3162 59.7313 69.2995 58.8937C67.3013 58.056 65.1828 57.6372 62.944 57.6372C60.6868 57.6372 58.5498 58.056 56.5331 58.8937C54.5164 59.7313 52.7309 60.9505 51.1767 62.5512C49.5856 64.1706 48.3737 66.0041 47.5411 68.0516C46.7085 70.0991 46.2922 72.2676 46.2922 74.5571C46.2922 76.8279 46.6992 78.9685 47.5133 80.9788C48.3459 82.989 49.5671 84.8132 51.1767 86.4512C52.8049 88.0892 54.6089 89.327 56.5886 90.1646C58.5868 91.0022 60.7053 91.421 62.944 91.421ZM84.647 74.5571C84.647 77.4794 84.1104 80.2342 83.0373 82.8215C81.9642 85.4088 80.4008 87.7076 78.347 89.7179C76.2933 91.7282 73.925 93.2824 71.2422 94.3806C68.5779 95.4602 65.8119 96 62.944 96C60.0762 96 57.3102 95.4602 54.6459 94.3806C52.0001 93.2824 49.6503 91.7282 47.5966 89.7179C45.5243 87.689 43.9424 85.3809 42.8508 82.7936C41.7777 80.2063 41.2411 77.4608 41.2411 74.5571C41.2411 71.6347 41.7777 68.8799 42.8508 66.2926C43.9424 63.6867 45.5243 61.3693 47.5966 59.3404C49.6318 57.3487 51.9816 55.8131 54.6459 54.7335C57.3102 53.6539 60.0762 53.1141 62.944 53.1141C65.8304 53.1141 68.6057 53.6539 71.27 54.7335C73.9528 55.8131 76.3118 57.3487 78.347 59.3404C80.4008 61.3507 81.9642 63.6587 83.0373 66.2647C84.1104 68.852 84.647 71.6161 84.647 74.5571Z" fill="#111111"/>
<path d="M92.5566 94.9111V54.0355H102.104C104.823 54.0355 106.812 54.1937 108.071 54.5101C109.347 54.8079 110.467 55.3291 111.429 56.0737C112.631 57.023 113.566 58.298 114.232 59.8988C114.898 61.4809 115.231 63.2399 115.231 65.1758C115.231 68.5262 114.297 71.0763 112.428 72.826C110.578 74.5571 107.858 75.4226 104.268 75.4226H103.408L118.922 94.9111H112.789L97.9685 75.4226H97.2746V94.9111H92.5566ZM97.2746 58.1398V71.8208H100.966C104.74 71.8208 107.266 71.3369 108.542 70.369C109.819 69.3825 110.457 67.67 110.457 65.2316C110.457 62.6071 109.801 60.7736 108.487 59.7313C107.173 58.6703 104.666 58.1398 100.966 58.1398H97.2746Z" fill="#111111"/>
<path d="M127.692 76.5673V94.9111H122.974V54.0355H131.494C134.473 54.0355 136.666 54.1937 138.072 54.5101C139.478 54.8266 140.699 55.3477 141.735 56.0737C143.03 57.0044 144.039 58.2794 144.76 59.8988C145.5 61.5182 145.87 63.3144 145.87 65.2874C145.87 67.2605 145.5 69.0567 144.76 70.6761C144.039 72.2955 143.03 73.5705 141.735 74.5012C140.699 75.2458 139.478 75.7763 138.072 76.0927C136.684 76.4091 134.492 76.5673 131.494 76.5673H127.692ZM127.692 72.1559H130.134C134.279 72.1559 137.063 71.6719 138.488 70.704C139.931 69.7175 140.653 68.005 140.653 65.5667C140.653 62.9607 139.913 61.1273 138.432 60.0663C136.971 59.0053 134.205 58.4748 130.134 58.4748H127.692V72.1559Z" fill="#111111"/>
</svg>
