<svg width="1013" height="390" viewBox="0 0 1013 390" fill="none" xmlns="http://www.w3.org/2000/svg">
<path d="M26.6486 98.1144V172.636H7.53356V6.57877H42.053C54.1217 6.57877 63.0045 7.22152 68.7016 8.50703C74.3986 9.79254 79.346 11.9098 83.5438 14.8589C88.791 18.6398 92.8764 23.8197 95.7999 30.3984C98.7983 36.9772 100.298 44.2744 100.298 52.2899C100.298 60.3054 98.7983 67.6025 95.7999 74.1813C92.8764 80.7601 88.791 85.9399 83.5438 89.7208C79.346 92.7455 74.3986 94.9006 68.7016 96.1861C63.0795 97.4716 54.1966 98.1144 42.053 98.1144H26.6486ZM26.6486 80.1929H36.5434C53.3346 80.1929 64.6162 78.2269 70.3882 74.2947C76.2351 70.287 79.1586 63.3301 79.1586 53.4241C79.1586 42.8376 76.1602 35.3892 70.1633 31.079C64.2414 26.7688 53.0348 24.6137 36.5434 24.6137H26.6486V80.1929Z" fill="#FFFFF4"/>
<path d="M163.939 43.6694L137.74 104.807H190.138L163.939 43.6694ZM163.939 0L238.825 172.636H217.574L196.21 121.707H131.893L110.53 172.636H89.2783L163.939 0Z" fill="#FFFFF4"/>
<path d="M255.804 172.636V0L376.228 132.71V6.57877H394.893V179.101L274.469 47.8662V172.636H255.804Z" fill="#FFFFF4"/>
<path d="M524.875 86.8851H592.79V92.443C592.79 118.607 585.444 139.251 570.751 154.374C556.059 169.498 536.007 177.06 510.595 177.06C502.874 177.06 495.491 176.228 488.444 174.564C481.473 172.901 475.026 170.481 469.105 167.305C455.612 159.819 445.192 149.497 437.846 136.339C430.5 123.106 426.827 108.096 426.827 91.3088C426.827 77.4707 429.001 64.9937 433.348 53.8778C437.771 42.6864 444.405 32.856 453.25 24.3868C460.672 17.2787 469.292 11.9098 479.112 8.28017C488.932 4.65051 499.801 2.83568 511.72 2.83568C527.537 2.83568 541.254 5.74697 552.873 11.5696C564.492 17.3165 574.125 26.0126 581.771 37.6578L565.354 50.9287C559.432 40.8715 552.049 33.3476 543.203 28.3568C534.358 23.2904 524.088 20.7572 512.394 20.7572C493.279 20.7572 477.763 27.2603 465.844 40.2666C453.925 53.2729 447.966 70.287 447.966 91.3088C447.966 111.121 454 127.379 466.069 140.082C478.212 152.786 493.654 159.138 512.394 159.138C528.886 159.138 542.604 154.11 553.548 144.052C564.567 133.92 570.676 120.762 571.876 104.58H524.875V86.8851Z" fill="#FFFFF4"/>
<path d="M673.972 43.6694L647.774 104.807H700.171L673.972 43.6694ZM673.972 0L748.858 172.636H727.607L706.243 121.707H641.927L620.563 172.636H599.311L673.972 0Z" fill="#FFFFF4"/>
<path d="M765.837 172.636V6.57877H852.641V24.6137H785.402V72.253H852.641V90.6282H785.402V154.261H852.641V172.636H765.837Z" fill="#FFFFF4"/>
<path d="M937.984 43.6694L911.786 104.807H964.183L937.984 43.6694ZM937.984 0L1012.87 172.636H991.619L970.255 121.707H905.939L884.575 172.636H863.323L937.984 0Z" fill="#FFFFF4"/>
<path d="M141.114 259.219C133.243 250.598 124.847 244.246 115.927 240.163C107.007 236.004 97.1492 233.924 86.3548 233.924C77.6594 233.924 69.1513 235.701 60.8307 239.255C52.585 242.809 45.4262 247.762 39.3544 254.114C33.0577 260.693 28.3352 268.066 25.1868 276.233C22.0385 284.324 20.4643 293.285 20.4643 303.115C20.4643 310.828 21.4013 317.936 23.2753 324.439C25.1493 330.942 27.9604 336.916 31.7084 342.361C38.305 351.813 46.4007 359.11 55.9957 364.252C65.6656 369.318 76.0852 371.852 87.2544 371.852C97.7489 371.852 107.494 369.659 116.489 365.273C125.484 360.887 133.693 354.346 141.114 345.65V371.852C132.943 377.826 124.135 382.363 114.69 385.463C105.32 388.488 95.6125 390 85.5677 390C76.8723 390 68.4017 388.677 60.156 386.03C51.9103 383.459 44.1894 379.678 36.9931 374.687C24.9994 366.294 15.8167 355.972 9.44506 343.722C3.14835 331.472 0 318.012 0 303.342C0 290.562 2.0989 278.955 6.29671 268.52C10.5695 258.009 17.0536 248.481 25.749 239.936C34.1446 231.769 43.4398 225.682 53.6344 221.674C63.8291 217.591 74.9608 215.549 87.0295 215.549C96.5495 215.549 105.77 217.024 114.69 219.973C123.61 222.846 132.418 227.346 141.114 233.471V259.219Z" fill="#FFFFF4"/>
<path d="M255.017 371.398C264.012 371.398 272.557 369.697 280.653 366.294C288.824 362.815 296.17 357.787 302.692 351.208C309.138 344.705 314.048 337.332 317.421 329.09C320.795 320.847 322.481 312.113 322.481 302.888C322.481 293.587 320.757 284.74 317.309 276.346C313.936 267.952 309.063 260.542 302.692 254.114C296.245 247.611 288.936 242.658 280.766 239.255C272.67 235.853 264.087 234.151 255.017 234.151C245.871 234.151 237.213 235.853 229.043 239.255C220.872 242.658 213.638 247.611 207.342 254.114C200.895 260.693 195.985 268.142 192.612 276.46C189.239 284.778 187.552 293.587 187.552 302.888C187.552 312.113 189.201 320.81 192.499 328.976C195.873 337.143 200.82 344.554 207.342 351.208C213.938 357.862 221.247 362.891 229.268 366.294C237.363 369.697 245.946 371.398 255.017 371.398ZM342.946 302.888C342.946 314.76 340.772 325.952 336.424 336.462C332.076 346.973 325.742 356.312 317.421 364.479C309.101 372.646 299.506 378.96 288.637 383.421C277.842 387.807 266.636 390 255.017 390C243.398 390 232.191 387.807 221.397 383.421C210.677 378.96 201.157 372.646 192.837 364.479C184.441 356.237 178.032 346.86 173.609 336.349C169.261 325.838 167.088 314.684 167.088 302.888C167.088 291.016 169.261 279.825 173.609 269.314C178.032 258.727 184.441 249.313 192.837 241.07C201.082 232.979 210.602 226.741 221.397 222.355C232.191 217.969 243.398 215.776 255.017 215.776C266.71 215.776 277.955 217.969 288.749 222.355C299.618 226.741 309.176 232.979 317.421 241.07C325.742 249.237 332.076 258.614 336.424 269.2C340.772 279.711 342.946 290.94 342.946 302.888Z" fill="#FFFFF4"/>
<path d="M374.991 385.576V219.519H413.671C424.69 219.519 432.749 220.162 437.846 221.447C443.018 222.657 447.553 224.775 451.451 227.799C456.324 231.656 460.109 236.836 462.808 243.339C465.506 249.766 466.856 256.912 466.856 264.777C466.856 278.388 463.07 288.747 455.499 295.856C448.003 302.888 436.984 306.404 422.441 306.404H418.956L481.81 385.576H456.961L396.917 306.404H394.106V385.576H374.991ZM394.106 236.193V291.772H409.061C424.353 291.772 434.585 289.806 439.757 285.874C444.93 281.866 447.516 274.909 447.516 265.003C447.516 254.341 444.855 246.893 439.533 242.658C434.21 238.348 424.053 236.193 409.061 236.193H394.106Z" fill="#FFFFF4"/>
<path d="M517.342 311.055V385.576H498.227V219.519H532.746C544.815 219.519 553.698 220.162 559.395 221.447C565.092 222.733 570.039 224.85 574.237 227.799C579.484 231.58 583.57 236.76 586.493 243.339C589.492 249.918 590.991 257.215 590.991 265.23C590.991 273.246 589.492 280.543 586.493 287.122C583.57 293.7 579.484 298.88 574.237 302.661C570.039 305.686 565.092 307.841 559.395 309.127C553.773 310.412 544.89 311.055 532.746 311.055H517.342ZM517.342 293.133H527.237C544.028 293.133 555.31 291.167 561.081 287.235C566.928 283.227 569.852 276.27 569.852 266.365C569.852 255.778 566.853 248.33 560.857 244.019C554.935 239.709 543.728 237.554 527.237 237.554H517.342V293.133Z" fill="#FFFFF4"/>
</svg>
